<?xml version="1.0" encoding="UTF-8"?>
<svg version="1.1" xmlns="http://www.w3.org/2000/svg" width="300" height="300">
<path d="M0 0 C99 0 198 0 300 0 C300 99 300 198 300 300 C201 300 102 300 0 300 C0 201 0 102 0 0 Z " fill="#161C28" transform="translate(0,0)"/>
<path d="M0 0 C3 1 3 1 4.60302734 3.69848633 C5.19126027 4.90455729 5.76806061 6.11624303 6.3359375 7.33203125 C6.6515564 7.98707138 6.96717529 8.64211151 7.2923584 9.31700134 C8.32998523 11.47750491 9.35259658 13.64475603 10.375 15.8125 C11.09318396 17.31642898 11.8121042 18.82000656 12.53173828 20.32324219 C18.11744238 32.01981806 23.58428639 43.77256906 29.00390625 55.546875 C30.97022769 59.80755722 32.97643573 64.04501247 35.02734375 68.265625 C35.49865723 69.23790039 35.9699707 70.21017578 36.45556641 71.21191406 C37.33263703 73.0140275 38.21600394 74.81309621 39.10693359 76.60839844 C39.49059082 77.39762695 39.87424805 78.18685547 40.26953125 79 C40.60573486 79.680625 40.94193848 80.36125 41.28833008 81.0625 C42 83 42 83 42 87 C40.015625 88.65991211 40.015625 88.65991211 37.25 90.27734375 C36.24839844 90.87353516 35.24679688 91.46972656 34.21484375 92.08398438 C33.15394531 92.69564453 32.09304687 93.30730469 31 93.9375 C28.93735091 95.1546953 26.87484824 96.37213877 24.8125 97.58984375 C23.81992188 98.16718262 22.82734375 98.74452148 21.8046875 99.33935547 C18.68174875 101.18843532 15.63883031 103.13906615 12.62109375 105.15454102 C11 106 11 106 8 106 C7.68772461 105.25951416 7.37544922 104.51902832 7.05371094 103.75610352 C5.620024 100.35786222 4.18502143 96.96017797 2.75 93.5625 C2.25886719 92.39783203 1.76773438 91.23316406 1.26171875 90.03320312 C0.77832031 88.88916016 0.29492188 87.74511719 -0.203125 86.56640625 C-0.67685547 85.44508301 -1.15058594 84.32375977 -1.63867188 83.16845703 C-3.13874155 79.67708253 -4.70815405 76.22262042 -6.32714844 72.78491211 C-7 71 -7 71 -7 68 C-10.90685627 69.30228542 -11.10660647 70.57587119 -12.93359375 74.1953125 C-13.49425537 75.29278809 -14.05491699 76.39026367 -14.63256836 77.52099609 C-15.23428777 78.7222929 -15.83592983 79.92362845 -16.4375 81.125 C-17.06086901 82.35161417 -17.68531076 83.57768372 -18.31079102 84.80322266 C-19.5900463 87.31149634 -20.864935 89.82191466 -22.13671875 92.33398438 C-24.85994908 97.70370458 -27.64736141 103.0398177 -30.4375 108.375 C-30.92822998 109.31561279 -31.41895996 110.25622559 -31.92456055 111.2253418 C-35.55844261 118.18248062 -39.25344286 125.1029289 -43 132 C-37.39 132 -31.78 132 -26 132 C-31.62054208 137.62054208 -31.62054208 137.62054208 -34.1640625 139.578125 C-34.72295166 140.01189453 -35.28184082 140.44566406 -35.85766602 140.89257812 C-36.44088623 141.34052734 -37.02410645 141.78847656 -37.625 142.25 C-38.87694358 143.2231336 -40.12823875 144.19710193 -41.37890625 145.171875 C-41.9939502 145.65076172 -42.60899414 146.12964844 -43.24267578 146.62304688 C-51.43678416 153.04354858 -59.36678423 159.79692854 -67.29101562 166.54541016 C-68.44238858 167.52539302 -69.59475354 168.50421145 -70.74804688 169.48193359 C-84.16546268 180.67480902 -84.16546268 180.67480902 -96.70703125 192.80859375 C-98 194 -98 194 -100 194 C-98.24351384 189.31409562 -96.02080552 184.89734433 -93.78125 180.4296875 C-93.36387573 179.59398224 -92.94650146 178.75827698 -92.51647949 177.89724731 C-91.62980885 176.12322612 -90.74212963 174.34970871 -89.85351562 172.57666016 C-88.52959938 169.9340813 -87.20986036 167.28944936 -85.890625 164.64453125 C-81.27986237 155.41933122 -76.58403353 146.24676588 -71.75878906 137.13192749 C-66.9124583 127.96915521 -62.2097593 118.73349267 -57.5 109.5 C-51.9469341 98.61320303 -46.3610478 87.74761321 -40.65184021 76.9417572 C-36.76487537 69.57651461 -32.96916376 62.1660261 -29.18057251 54.74984741 C-23.44568933 43.5303766 -17.65957612 32.35824933 -11.51049805 21.35839844 C-8.23005169 15.47944368 -5.18770633 9.51014292 -2.2421875 3.45703125 C-1 1 -1 1 0 0 Z " fill="#FAFAFB" transform="translate(159,50)"/>
<path d="M0 0 C3.13050408 2.64086265 4.64773456 5.97073643 6.37109375 9.59765625 C6.84930321 10.58546585 6.84930321 10.58546585 7.33717346 11.5932312 C8.37717739 13.7465641 9.40767283 15.9042838 10.4375 18.0625 C11.15142782 19.54838576 11.86562264 21.03414327 12.58007812 22.51977539 C17.11257589 31.96436521 21.58676497 41.43660683 26 50.9375 C26.50974365 52.0313501 27.0194873 53.1252002 27.54467773 54.25219727 C28.23412476 55.74964478 28.23412476 55.74964478 28.9375 57.27734375 C29.33839844 58.14609131 29.73929688 59.01483887 30.15234375 59.90991211 C31 62 31 62 31 64 C16.81 64 2.62 64 -12 64 C-14.31 59.111875 -16.62 54.22375 -19 49.1875 C-19.73089844 47.64860107 -20.46179688 46.10970215 -21.21484375 44.52416992 C-21.78951946 43.3014842 -22.36376746 42.07859733 -22.9375 40.85546875 C-23.23978516 40.22306274 -23.54207031 39.59065674 -23.85351562 38.93908691 C-25.18237845 36.09321871 -26 34.18323877 -26 31 C-24.05859375 29.421875 -24.05859375 29.421875 -21.4375 27.75 C-10.86954123 20.61029302 -4.63891271 11.85499915 0 0 Z " fill="#FAFAFA" transform="translate(222,181)"/>
<path d="M0 0 C1.36878548 2.74356126 2.72013177 5.49355105 4.0625 8.25 C4.45244141 9.02730469 4.84238281 9.80460938 5.24414062 10.60546875 C5.60830078 11.35957031 5.97246094 12.11367187 6.34765625 12.890625 C6.68804932 13.58188477 7.02844238 14.27314453 7.37915039 14.98535156 C8.16063708 17.52126512 8.15828583 18.60206493 7 21 C4.77294922 22.47290039 4.77294922 22.47290039 1.8046875 23.84765625 C0.70745361 24.36497314 -0.38978027 24.88229004 -1.52026367 25.4152832 C-2.70982666 25.95886475 -3.89938965 26.50244629 -5.125 27.0625 C-6.35395235 27.63681026 -7.58221816 28.21259176 -8.80981445 28.78979492 C-11.31914238 29.96762013 -13.83165913 31.13816991 -16.34716797 32.30273438 C-21.64897373 34.76046286 -26.91785336 37.28673468 -32.1875 39.8125 C-33.13995605 40.26713623 -34.09241211 40.72177246 -35.07373047 41.19018555 C-40.94472602 43.99656036 -46.77964288 46.86419771 -52.5847168 49.80419922 C-56.83784205 51.94770121 -61.12112106 54.01999945 -65.421875 56.06640625 C-77.86828947 61.98913488 -90.13186913 67.9868833 -102 75 C-104.5697437 76.51609258 -107.14048 78.030337 -109.71484375 79.53857422 C-111.41285315 80.53471845 -113.10705453 81.53739 -114.796875 82.54736328 C-115.94349609 83.2219458 -115.94349609 83.2219458 -117.11328125 83.91015625 C-117.79173096 84.31371338 -118.47018066 84.71727051 -119.16918945 85.13305664 C-121 86 -121 86 -124 86 C-115.16693966 78.21849446 -106.22791728 70.66457582 -96.90576172 63.47607422 C-94.84672715 61.88128521 -92.7997111 60.27187709 -90.75390625 58.66015625 C-68.27030248 40.9812678 -44.87570117 24.17241289 -20 10 C-18.84201904 9.33798584 -18.84201904 9.33798584 -17.66064453 8.66259766 C-15.17404009 7.2461897 -12.68226486 5.83947993 -10.1875 4.4375 C-9.4032666 3.99486816 -8.6190332 3.55223633 -7.81103516 3.09619141 C-7.08319824 2.69190918 -6.35536133 2.28762695 -5.60546875 1.87109375 C-4.95731201 1.50943115 -4.30915527 1.14776855 -3.64135742 0.77514648 C-2 0 -2 0 0 0 Z " fill="#60A1D9" transform="translate(207,143)"/>
<path d="M0 0 C-0.20225246 10.11262281 -5.98860082 21.0926817 -12.94140625 28.32421875 C-24.52048024 37.75006835 -40.0797028 39.11335279 -54.3125 41.4375 C-73.29677403 44.62726309 -90.78398886 49.84087321 -108.91210938 56.21484375 C-109.89630859 56.55902344 -110.88050781 56.90320313 -111.89453125 57.2578125 C-112.77987549 57.5686377 -113.66521973 57.87946289 -114.57739258 58.19970703 C-116.70644347 58.90302547 -118.81730216 59.49213044 -121 60 C-118.3575585 57.19123262 -115.84279548 55.12374245 -112.4921875 53.22265625 C-111.60225098 52.71621582 -110.71231445 52.20977539 -109.79541016 51.68798828 C-108.8316748 51.15157715 -107.86793945 50.61516602 -106.875 50.0625 C-105.85583496 49.49257324 -104.83666992 48.92264648 -103.78662109 48.33544922 C-84.81793835 37.83064987 -65.26186042 28.64303659 -45.50250244 19.74880981 C-35.03695078 15.03721644 -24.63757662 10.18995919 -14.25292969 5.30297852 C-13.07891602 4.75182373 -11.90490234 4.20066895 -10.6953125 3.6328125 C-9.66422363 3.14699707 -8.63313477 2.66118164 -7.57080078 2.16064453 C-2.78502314 0 -2.78502314 0 0 0 Z " fill="#60A2D9" transform="translate(217,171)"/>
<path d="M0 0 C-2.85901997 7.01759446 -9.56250554 11.48160963 -16 15 C-24.62326962 18.50251054 -32.71799854 20.11807589 -42.01171875 20.2109375 C-43.58163756 20.23675771 -45.15154303 20.26339915 -46.72143555 20.29077148 C-47.5336557 20.30405487 -48.34587585 20.31733826 -49.18270874 20.33102417 C-63.0159 20.57388915 -76.42639729 21.10823247 -90 24 C-91.65515625 24.31710938 -91.65515625 24.31710938 -93.34375 24.640625 C-95.56754991 25.06827883 -97.78519037 25.52799139 -100 26 C-77.10248175 7.16943755 -29.01447246 0 0 0 Z " fill="#5895D6" transform="translate(188,215)"/>
<path d="M0 0 C-5.28830549 2.15294651 -10.55123997 4.27933894 -16 6 C-14.68 6.66 -13.36 7.32 -12 8 C-12 8.33 -12 8.66 -12 9 C-12.89460938 9.12117187 -13.78921875 9.24234375 -14.7109375 9.3671875 C-21.86271531 10.35837206 -28.94266862 11.47145357 -36 13 C-29.24128116 7.44173487 -8.6295556 -2.87651853 0 0 Z " fill="#3A69B3" transform="translate(124,228)"/>
<path d="M0 0 C1.65 0.66 3.3 1.32 5 2 C1.28638882 5.08654738 -2.58783443 7.77284307 -6.6875 10.3125 C-7.55858398 10.8703418 -7.55858398 10.8703418 -8.44726562 11.43945312 C-9.92652 12.35778792 -11.46029198 13.18708458 -13 14 C-13.66 13.67 -14.32 13.34 -15 13 C-10.05 8.71 -5.1 4.42 0 0 Z " fill="#3664B3" transform="translate(98,216)"/>
<path d="M0 0 C0.66 0.33 1.32 0.66 2 1 C1.67 1.33 1.34 1.66 1 2 C2.32 2.66 3.64 3.32 5 4 C1.87959957 5.19984601 -1.24695531 6.38274177 -4.375 7.5625 C-5.70917969 8.07586914 -5.70917969 8.07586914 -7.0703125 8.59960938 C-7.92109375 8.91865234 -8.771875 9.23769531 -9.6484375 9.56640625 C-10.43395996 9.86490479 -11.21948242 10.16340332 -12.02880859 10.47094727 C-14 11 -14 11 -16 10 C-13.38321437 8.29948946 -10.75537761 6.61689493 -8.125 4.9375 C-7.37863281 4.45216797 -6.63226563 3.96683594 -5.86328125 3.46679688 C-5.14785156 3.01240234 -4.43242188 2.55800781 -3.6953125 2.08984375 C-3.03547363 1.66566162 -2.37563477 1.24147949 -1.69580078 0.80444336 C-1.13618652 0.53897705 -0.57657227 0.27351074 0 0 Z " fill="#3C6CB8" transform="translate(112,220)"/>
<path d="M0 0 C0.66 0.33 1.32 0.66 2 1 C0.83917375 4.48247874 0.09067524 4.88819244 -2.9375 6.75 C-3.64777344 7.19859375 -4.35804687 7.6471875 -5.08984375 8.109375 C-5.72019531 8.40328125 -6.35054688 8.6971875 -7 9 C-7.66 8.67 -8.32 8.34 -9 8 C-6.03 5.36 -3.06 2.72 0 0 Z " fill="#335CA5" transform="translate(92,221)"/>
<path d="M0 0 C-0.66 1.32 -1.32 2.64 -2 4 C-2.33 3.34 -2.66 2.68 -3 2 C-5.64 2.33 -8.28 2.66 -11 3 C-7.88866897 -0.11133103 -4.26881718 0 0 0 Z " fill="#6BB1CF" transform="translate(188,215)"/>
</svg>
